<?xml version="1.0" encoding="UTF-8" standalone="no"?>
<svg
   xmlns:dc="http://purl.org/dc/elements/1.1/"
   xmlns:cc="http://creativecommons.org/ns#"
   xmlns:rdf="http://www.w3.org/1999/02/22-rdf-syntax-ns#"
   xmlns:svg="http://www.w3.org/2000/svg"
   xmlns="http://www.w3.org/2000/svg"
   xmlns:sodipodi="http://sodipodi.sourceforge.net/DTD/sodipodi-0.dtd"
   xmlns:inkscape="http://www.inkscape.org/namespaces/inkscape"
   inkscape:export-ydpi="150.9433"
   inkscape:export-xdpi="150.9433"
   inkscape:export-filename="C:\Users\Sole\Documents\Juego Libre\Web\img\logo-letras.png"
   width="155"
   height="40"
   viewBox="0 0 41.010415 10.583334"
   version="1.1"
   id="svg8"
   inkscape:version="1.0 (4035a4fb49, 2020-05-01)"
   sodipodi:docname="logo-letras.svg">
  <defs
     id="defs2">
    <path
       d="m 1090.493,696.734 c -1.059,-1.523 -3.436,-2.091 -6.883,-1.866 C 1030.184,679.03 907.5,570.04 881.891,546.608 742.905,419.442 614.149,222.787 395.844,324.864 c -23.994,11.219 -190.268,117.11 -60.798,392.529 127.648,271.545 146.514,387.516 146.567,425.497 -0.085,0.145 -0.186,0.296 -0.271,0.441 0,0 0.071,0.235 0.267,0.603 -0.002,0.385 0.004,0.814 -0.002,1.182 0,0 0.196,-0.186 0.483,-0.454 5.005,6.712 42.696,30.861 304.211,-128.477 261.858,-159.547 324.679,-290.03 304.192,-319.451 z"
       id="SVGID_1_" />
    <path
       d="M674.774,239.934c0,0-459.155-47.103-523.623,386.93s335.553,517.259,448.324,522.766     c112.771,5.507,456.474-46.104,452.702-467.728C1048.725,296.127,674.774,239.934,674.774,239.934z"
       id="SVGID_1_-4" />
  </defs>
  <sodipodi:namedview
     fit-margin-bottom="0"
     fit-margin-right="0"
     fit-margin-left="0"
     fit-margin-top="0"
     id="base"
     pagecolor="#ffffff"
     bordercolor="#666666"
     borderopacity="1.0"
     inkscape:pageopacity="0.0"
     inkscape:pageshadow="2"
     inkscape:zoom="1.4"
     inkscape:cx="104.22295"
     inkscape:cy="-8.0133669"
     inkscape:document-units="mm"
     inkscape:current-layer="layer1"
     inkscape:document-rotation="0"
     showgrid="false"
     units="px"
     inkscape:window-width="1366"
     inkscape:window-height="705"
     inkscape:window-x="-8"
     inkscape:window-y="-8"
     inkscape:window-maximized="1"
     inkscape:snap-global="false" />
  <metadata
     id="metadata5">
    <rdf:RDF>
      <cc:Work
         rdf:about="">
        <dc:format>image/svg+xml</dc:format>
        <dc:type
           rdf:resource="http://purl.org/dc/dcmitype/StillImage" />
        <dc:title />
      </cc:Work>
    </rdf:RDF>
  </metadata>
  <g
     transform="translate(-11.686051,-1.6615812)"
     inkscape:label="Capa 1"
     inkscape:groupmode="layer"
     id="layer1">
    <text
       xml:space="preserve"
       style="font-style:normal;font-weight:normal;font-size:10.5833px;line-height:1.25;font-family:sans-serif;letter-spacing:0px;word-spacing:0px;fill:#e9b665;fill-opacity:1;stroke:none;stroke-width:0.264583"
       x="12.015901"
       y="9.3849411"
       id="text835"><tspan
         sodipodi:role="line"
         id="tspan833"
         x="12.015901"
         y="9.3849411"
         style="font-style:normal;font-variant:normal;font-weight:normal;font-stretch:normal;font-size:7.05556px;font-family:'Sangi Serif';-inkscape-font-specification:'Sangi Serif';fill:#e9b665;fill-opacity:1;stroke-width:0.264583">juego<tspan
   id="tspan834"
   style="font-size:4.23333px"> </tspan>libre</tspan></text>
    <g
       style="stroke:none;stroke-opacity:1;fill:#a6b1b7;fill-opacity:1"
       transform="matrix(0.0334551,0,0,0.0334551,19.844751,-1.9080742)"
       id="g198">
      <g
         style="stroke:none;stroke-opacity:1;fill:#a6b1b7;fill-opacity:1"
         id="g192">
        <path
           style="stroke:none;stroke-opacity:1;fill:#a6b1b7;fill-opacity:1"
           id="path190"
           d="m 965.021,228.093 v -0.123 c -0.003,0.041 -0.008,0.082 -0.011,0.123 z"
           fill="#e54b25" />
      </g>
      <g
         style="stroke:none;stroke-opacity:1;fill:#a6b1b7;fill-opacity:1"
         id="g196">
        <path
           style="stroke:none;stroke-opacity:1;fill:#a6b1b7;fill-opacity:1"
           id="path194"
           d="m 965.134,222.275 c 0,-26.231 -13.091,-50.545 -34.918,-65.163 -0.51,-0.342 -1.03,-0.614 -1.547,-0.943 0.008,0.01 0.016,0.021 0.024,0.031 -12.48,-7.833 -26.874,-12.005 -41.698,-12.005 -5.454,0 -11.468,0.567 -16.787,1.687 -29.424,6.192 -52.381,29.094 -60.704,58.347 v 10e-4 c -0.911,5.954 -1.498,12.988 -1.516,19.108 -0.001,-0.003 -0.002,-0.006 -0.003,-0.009 0,0.03 0.002,0.06 0.002,0.09 0,0.066 -0.002,0.136 -0.002,0.201 0,0.037 0.004,0.059 0.009,0.071 0.387,23.843 11.573,45.876 30.443,60.607 13.895,10.849 30.587,16.585 48.254,16.585 12.762,0 25.457,-3.348 36.676,-9.287 24.121,-12.769 39.603,-37.106 41.643,-63.924 h -0.029 c 0.128,-1.848 0.153,-3.57 0.153,-5.397 z m -94.22,-33.054 c 2.825,0 5.391,1.089 7.227,3.068 1.844,1.988 2.744,4.647 2.531,7.487 -0.448,5.991 -5.685,10.865 -11.673,10.865 -2.825,0 -5.391,-1.089 -7.227,-3.068 -1.844,-1.988 -2.744,-4.647 -2.532,-7.486 0.449,-5.992 5.686,-10.866 11.674,-10.866 z m -33.839,8.741 c -7.333,0.565 -14.653,1.603 -21.703,3.514 7.344,-25.006 27.572,-44.57 52.816,-51.042 -0.005,0.023 -0.007,0.046 -0.012,0.07 -0.966,5.091 -1.655,10.235 -2.052,15.402 -0.063,0.813 -0.189,13.498 -0.344,13.54 -8.37,2.243 -15.121,9.302 -16.747,17.946 -0.316,0.007 -0.628,0.018 -0.942,0.026 -3.653,0.096 -7.336,0.26 -11.016,0.544 z m 49.597,98.77 c -16.318,0 -31.748,-5.165 -44.706,-14.951 0.167,-0.998 0.34,-1.983 0.514,-2.967 3.583,-20.309 9.147,-40.586 18.337,-59.12 2.388,0.968 4.986,1.488 7.703,1.488 1.882,0 3.717,-0.271 5.49,-0.735 0.016,0.043 0.032,0.085 0.047,0.128 9.469,25.903 24.582,49.925 44.691,68.889 -9.952,4.763 -20.979,7.268 -32.076,7.268 z m 74.031,-72.54 c -0.026,0.038 -21.715,-10.325 -23.775,-11.163 -7.543,-3.067 -15.257,-5.716 -23.094,-7.927 -2.1,-0.592 -22.62,-5.235 -22.63,-5.09 0.407,-5.687 -1.425,-11.037 -5.168,-15.071 -0.066,-0.071 -0.14,-0.13 -0.206,-0.2 0.19,-0.168 0.382,-0.332 0.573,-0.498 6.296,-5.479 13.366,-10.006 20.777,-13.821 3.636,-1.872 7.359,-3.574 11.134,-5.148 1.326,-0.553 9.447,-4.787 10.519,-4.047 2.247,1.551 4.388,3.218 6.427,4.981 16.245,14.037 25.722,34.454 25.722,56.216 -10e-4,0.68 0.067,1.236 -0.279,1.768 z"
           fill="#e54b25" />
      </g>
    </g>
  </g>
</svg>
